HIERARCHY
ROOT root
{
	OFFSET 0.000000 0.000000 0.000000
	CHANNELS 6 Xposition Yposition Zposition Zrotation Yrotation Xrotation
	JOINT lhip
	{
		OFFSET 0.058581 -0.082280 -0.017664
		CHANNELS 3 Zrotation Yrotation Xrotation
		JOINT lknee
		{
			OFFSET 0.043451 -0.386469 0.008037
			CHANNELS 3 Zrotation Yrotation Xrotation
			JOINT lankle
			{
				OFFSET -0.014790 -0.426874 -0.037428
				CHANNELS 3 Zrotation Yrotation Xrotation
				JOINT ltoe
				{
					OFFSET 0.041054 -0.060286 0.122042
					CHANNELS 3 Zrotation Yrotation Xrotation
					End Site
					{
						OFFSET 0.000000 0.000000 0.000000
					}
				}
			}
		}
	}
	JOINT rhip
	{
		OFFSET -0.060310 -0.090513 -0.013543
		CHANNELS 3 Zrotation Yrotation Xrotation
		JOINT rknee
		{
			OFFSET -0.043257 -0.383688 -0.004843
			CHANNELS 3 Zrotation Yrotation Xrotation
			JOINT rankle
			{
				OFFSET 0.019056 -0.420046 -0.034562
				CHANNELS 3 Zrotation Yrotation Xrotation
				JOINT rtoe
				{
					OFFSET -0.034840 -0.062106 0.130323
					CHANNELS 3 Zrotation Yrotation Xrotation
					End Site
					{
						OFFSET 0.000000 0.000000 0.000000
					}
				}
			}
		}
	}
	JOINT lowerback
	{
		OFFSET 0.004439 0.124404 -0.038385
		CHANNELS 3 Zrotation Yrotation Xrotation
		JOINT upperback
		{
			OFFSET 0.004488 0.137956 0.026820
			CHANNELS 3 Zrotation Yrotation Xrotation
			JOINT chest
			{
				OFFSET -0.002265 0.056032 0.002855
				CHANNELS 3 Zrotation Yrotation Xrotation
				JOINT lowerneck
				{
					OFFSET -0.013390 0.211636 -0.033468
					CHANNELS 3 Zrotation Yrotation Xrotation
					JOINT upperneck
					{
						OFFSET 0.010113 0.088937 0.050410
						CHANNELS 3 Zrotation Yrotation Xrotation
						End Site
						{
							OFFSET 0.000000 0.000000 0.000000
						}
					}
				}
				JOINT lclavicle
				{
					OFFSET 0.071702 0.114000 -0.018898
					CHANNELS 3 Zrotation Yrotation Xrotation
					JOINT lshoulder
					{
						OFFSET 0.122921 0.045205 -0.019046
						CHANNELS 3 Zrotation Yrotation Xrotation
						JOINT lelbow
						{
							OFFSET 0.255332 -0.015649 -0.022946
							CHANNELS 3 Zrotation Yrotation Xrotation
							JOINT lwrist
							{
								OFFSET 0.265709 0.012698 -0.007375
								CHANNELS 3 Zrotation Yrotation Xrotation
								End Site
								{
									OFFSET 0.000000 0.000000 0.000000
								}
							}
						}
					}
				}
				JOINT rclavicle
				{
					OFFSET -0.082954 0.112472 -0.023707
					CHANNELS 3 Zrotation Yrotation Xrotation
					JOINT rshoulder
					{
						OFFSET -0.113228 0.046853 -0.008472
						CHANNELS 3 Zrotation Yrotation Xrotation
						JOINT relbow
						{
							OFFSET -0.260127 -0.014369 -0.031269
							CHANNELS 3 Zrotation Yrotation Xrotation
							JOINT rwrist
							{
								OFFSET -0.269108 0.006794 -0.006027
								CHANNELS 3 Zrotation Yrotation Xrotation
								End Site
								{
									OFFSET 0.000000 0.000000 0.000000
								}
							}
						}
					}
				}
			}
		}
	}
}
MOTION
Frames: 13
Frame Time: 0.033333
-0.067893 -1.794114 0.971421 173.985475 -0.457902 83.711338 5.489955 -2.246914 -7.571918 -5.345094 -8.924026 14.654649 -3.105818 5.620061 -13.470137 0.000000 -0.000000 0.000000 2.067211 0.971058 6.352021 -1.543151 6.703598 16.844589 -1.802144 -3.060824 -29.208875 0.000000 -0.000000 0.000000 -0.716569 1.939248 17.785556 1.373794 -2.424451 5.146754 0.639860 -1.235644 1.448590 -1.387396 8.350759 -5.103585 1.453692 -0.605706 -1.680128 -24.619341 5.872226 2.035681 -52.713276 2.376244 10.153090 9.529790 -51.707630 10.299976 -2.703042 -12.619607 -20.876624 22.386879 -1.506454 3.463905 56.650362 -0.920541 10.828146 -19.144859 39.381494 0.028493 7.818988 6.723482 -10.095819 
-0.068073 -1.794149 0.971563 173.720356 -0.406997 83.944587 5.581221 -2.411858 -7.717881 -5.352441 -8.801630 14.553873 -3.167096 5.937982 -13.414687 0.000000 -0.000000 0.000000 2.103870 1.000802 5.999175 -1.470387 7.124127 17.027281 -1.792548 -3.200996 -29.019265 0.000000 -0.000000 0.000000 -0.671739 1.770175 17.589193 1.270454 -2.164066 4.985119 0.596857 -1.349429 2.241028 -1.233894 8.518092 -6.640313 -0.220784 0.324390 -0.388323 -24.969596 6.591984 1.256539 -52.327898 2.593731 10.683534 8.677996 -52.349801 10.795182 -1.863219 -12.715890 -20.946514 22.541269 -1.658602 2.669114 55.754415 -1.067075 12.085371 -17.498113 39.557570 1.412983 7.166291 6.795834 -9.063546 
-0.068259 -1.793992 0.971516 173.318869 -0.378342 84.087054 5.645461 -2.425871 -7.776306 -5.365887 -8.693511 14.551585 -3.100413 6.250255 -13.431947 0.000000 -0.000000 0.000000 2.109411 1.120365 5.732379 -1.393442 7.535120 17.268285 -1.704787 -3.225610 -28.840529 0.000000 -0.000000 0.000000 -0.661000 1.697419 17.586604 1.163818 -1.941008 4.866072 0.579677 -1.265957 2.400227 -1.295732 8.439403 -6.887372 -0.548916 0.684286 -0.213226 -25.095772 7.157002 1.162436 -52.270211 3.151254 10.889547 7.823055 -53.082289 11.451327 -0.945156 -12.807826 -20.922489 22.514242 -1.735340 2.667748 55.070549 -1.367783 12.610763 -15.909806 40.068147 3.009236 6.856139 7.010208 -8.494649 
-0.068500 -1.793418 0.971445 172.737897 -0.359959 84.237999 5.717849 -2.415499 -7.781567 -5.371879 -8.460398 14.556748 -2.969925 6.586875 -13.497313 0.000000 -0.000000 0.000000 2.060976 1.296046 5.564306 -1.319197 7.934689 17.338958 -1.618345 -3.133236 -28.606047 0.000000 -0.000000 0.000000 -0.665267 1.748175 17.543057 1.042407 -1.669472 4.827096 0.553026 -1.081762 2.415719 -1.298822 8.228638 -6.705322 -0.578456 0.831426 -0.308458 -25.116082 7.813004 1.316323 -52.352666 4.093000 11.108882 6.625454 -53.740156 12.496257 -0.388964 -12.943284 -20.896489 22.482532 -1.761999 2.952733 54.545622 -2.033173 12.917824 -14.688054 40.660591 3.967521 6.744158 7.230834 -8.630798 
-0.068669 -1.792878 0.971474 172.446002 -0.350089 84.323241 5.749534 -2.395520 -7.761766 -5.377548 -8.367481 14.537184 -2.914156 6.765480 -13.538485 0.000000 -0.000000 0.000000 2.014921 1.344950 5.565642 -1.273190 8.183694 17.233793 -1.563245 -3.080651 -28.411066 0.000000 -0.000000 0.000000 -0.650069 1.808563 17.450375 0.996009 -1.539621 4.880480 0.521869 -1.017779 2.428563 -1.330841 8.089637 -6.556939 -0.592923 0.845430 -0.420508 -25.175557 8.210039 1.447582 -52.302054 4.667290 11.209356 5.774754 -53.844596 13.172741 -0.438209 -13.006003 -20.988097 22.517020 -1.977101 3.065674 54.230571 -2.412799 12.999357 -13.995348 41.006926 4.337178 6.761900 7.309228 -8.915645 
-0.068887 -1.791984 0.971688 172.165819 -0.306778 84.404777 5.798879 -2.347131 -7.696963 -5.383339 -8.341680 14.472378 -2.850546 6.957093 -13.574750 0.000000 -0.000000 0.000000 1.972974 1.325019 5.640854 -1.216618 8.476347 17.015395 -1.523844 -3.028820 -28.203139 0.000000 -0.000000 0.000000 -0.616361 1.894776 17.311449 0.977252 -1.432832 4.985572 0.493856 -0.969745 2.465224 -1.348100 7.936425 -6.305365 -0.612962 0.851166 -0.606081 -25.201462 8.739757 1.655339 -52.264292 5.467585 11.312465 4.592224 -53.701929 14.216723 -0.625949 -12.967281 -21.232364 22.481999 -2.395145 3.154406 53.962218 -2.880165 13.086260 -13.125147 41.335249 4.962707 6.682785 7.427330 -9.246160 
-0.069097 -1.790991 0.971830 172.025569 -0.249363 84.520779 5.853217 -2.338215 -7.722030 -5.425324 -8.402159 14.451302 -2.757974 7.156260 -13.608770 0.000000 -0.000000 0.000000 1.931806 1.296948 5.744239 -1.108643 8.770745 16.723205 -1.447094 -3.072222 -27.931490 0.000000 -0.000000 0.000000 -0.614371 1.959728 17.110711 1.009306 -1.401772 5.079217 0.500891 -0.964762 2.559997 -1.316726 7.812351 -6.081011 -0.639853 0.905113 -0.720622 -25.081924 9.317232 1.919809 -52.242939 6.285989 11.403894 3.173407 -53.439128 15.645850 -0.674412 -12.837479 -21.361362 22.339024 -2.871685 3.210055 53.619364 -3.378019 13.266819 -11.938184 41.663457 6.137457 6.472242 7.551432 -9.275566 
-0.069422 -1.789998 0.971959 172.000428 -0.176056 84.659017 5.901585 -2.352321 -7.822344 -5.475890 -8.523843 14.475865 -2.679517 7.340080 -13.640390 0.000000 -0.000000 0.000000 1.906435 1.281809 5.844393 -0.977860 9.030888 16.417265 -1.343546 -3.200872 -27.651637 0.000000 -0.000000 0.000000 -0.613635 1.967735 16.970412 1.058304 -1.398942 5.076981 0.529052 -0.983889 2.695423 -1.253328 7.688576 -5.901044 -0.646042 0.978792 -0.820721 -24.919896 9.952408 2.190838 -52.114683 7.132320 11.449121 1.569568 -53.232122 17.398572 -0.968518 -12.838464 -21.186194 22.145765 -3.402643 3.253215 53.147895 -3.996967 13.448534 -10.515633 42.138466 7.677363 6.516189 7.735820 -9.014573 
-0.069852 -1.789031 0.972117 171.987926 -0.114188 84.794899 5.930750 -2.379446 -7.908913 -5.518449 -8.640910 14.475590 -2.611021 7.509580 -13.673069 0.000000 -0.000000 0.000000 1.881374 1.300172 5.920530 -0.865333 9.329322 16.156024 -1.220944 -3.370575 -27.378184 0.000000 -0.000000 0.000000 -0.604250 1.992046 16.865353 1.100162 -1.385532 5.127453 0.550782 -0.995091 2.820932 -1.210086 7.515001 -5.733910 -0.627429 1.002403 -1.117029 -24.847369 10.545404 2.426344 -51.872744 7.901437 11.435989 0.218000 -53.031914 18.797113 -1.503912 -12.899136 -21.060715 22.058947 -3.942992 3.306533 52.595607 -4.658396 13.568074 -9.256175 42.585415 9.128646 6.697551 7.902953 -8.397955 
-0.070496 -1.787856 0.972267 171.992060 -0.035438 84.965704 5.965838 -2.419175 -8.030425 -5.585175 -8.780071 14.489345 -2.479778 7.705197 -13.714379 0.000000 -0.000000 0.000000 1.868082 1.274770 5.964000 -0.750219 9.700280 15.948933 -1.107298 -3.585585 -27.021377 0.000000 -0.000000 0.000000 -0.570072 2.077158 16.714902 1.169022 -1.369922 5.319771 0.580012 -1.007298 2.953429 -1.199783 7.251230 -5.419769 -0.598197 1.057292 -1.599932 -24.843356 11.184173 2.636210 -51.710916 8.605825 11.321666 -0.620560 -52.635781 19.626647 -1.957008 -12.759632 -21.256379 22.016422 -4.573834 3.415081 52.017614 -5.406634 13.661115 -8.137608 42.871494 10.601280 6.503228 7.902839 -7.463154 
-0.071222 -1.787324 0.972315 172.025657 0.031306 85.072953 5.988015 -2.479186 -8.182847 -5.653235 -8.878954 14.602017 -2.386828 7.847502 -13.759088 0.000000 -0.000000 0.000000 1.875991 1.306904 5.949581 -0.673983 9.879973 15.890551 -1.016481 -3.768818 -26.837537 0.000000 -0.000000 0.000000 -0.496023 2.115178 16.803092 1.201486 -1.317443 5.353671 0.596642 -1.006792 3.093185 -1.196716 7.038995 -5.202240 -0.624627 1.040500 -1.810528 -24.889791 11.602412 2.667429 -51.740373 8.893683 11.114794 -0.613704 -52.154307 19.688474 -2.032320 -12.563209 -21.358357 22.008532 -4.999244 3.481268 51.727390 -5.934939 13.683105 -7.708749 42.906474 11.328743 5.975164 7.831996 -6.776356 
-0.072092 -1.787112 0.972175 172.031386 0.035700 85.187519 5.959073 -2.536012 -8.398117 -5.740856 -8.899697 14.785825 -2.266315 7.951196 -13.823467 0.000000 -0.000000 0.000000 1.817581 1.388733 5.854279 -0.605951 9.990241 15.949910 -0.916775 -3.901915 -26.690059 0.000000 -0.000000 0.000000 -0.469467 2.171640 16.938351 1.209184 -1.238022 5.404834 0.613292 -1.000202 3.251762 -1.147457 6.835132 -4.953873 -0.663852 1.006249 -1.930347 -25.012948 11.865670 2.592969 -51.834540 8.902389 10.849045 -0.083722 -51.569329 19.167432 -1.945329 -12.347080 -21.255611 22.063476 -5.318126 3.543570 51.511800 -6.305135 13.655763 -7.582603 42.799435 11.619288 5.473291 7.729333 -6.266310 
-0.073104 -1.787058 0.971946 172.098719 0.033466 85.284951 5.911026 -2.561358 -8.640619 -5.829140 -8.912275 15.010908 -2.150402 7.969717 -13.879853 0.000000 -0.000000 0.000000 1.769036 1.440313 5.686596 -0.562228 10.036162 16.164643 -0.859267 -4.018720 -26.604805 0.000000 -0.000000 0.000000 -0.465726 2.213763 17.119956 1.226336 -1.197566 5.516295 0.643360 -1.006017 3.383875 -1.066874 6.666938 -4.659649 -0.619838 1.036403 -1.973992 -25.195265 11.902877 2.491076 -51.961230 8.720282 10.583623 0.779784 -51.029492 18.230959 -1.677213 -12.092878 -21.020011 22.141958 -5.475525 3.605910 51.408196 -6.529431 13.540934 -7.734979 42.638246 11.436591 5.172633 7.568040 -6.108284 
